<svg xmlns="http://www.w3.org/2000/svg" width="334" height="316" aria-labelledby="nb-title nb-desc" viewBox="0 0 334 316"><title id="nb-title">NeverBroke</title><desc id="nb-desc">认知翻身账 · 绿色与白色图形，深色背景已去除</desc><path fill="#29a639" d="M321 1.2c-5.4.9-24.4 3.9-63 9.8-24.7 3.8-27 4.5-27 7.2q.1 2.2 13.6 15.9c13.4 13.5 13.6 13.7 12 16-.9 1.3-33.9 34.6-73.4 74-78.6 78.4-75 75.3-90.5 78.5A40.5 40.5 0 0 1 48.6 180c-10.2-21.6 2.5-59.1 26.6-78.7a93 93 0 0 1 92.7-13.7c4.7 1.9 9 3.4 9.5 3.4 1.3 0 27.6-26.1 27.6-27.3s-20.9-11-28.5-13.6A198 198 0 0 0 160 46a99 99 0 0 0-28.5-1.7c-15 .4-19.7.9-28 3.1A137 137 0 0 0 .3 176.1 115 115 0 0 0 6.7 222 131 131 0 0 0 40 276c20 20.1 44.9 33.3 72 38.1 11.1 2 37.5 1.8 47.7-.5a142 142 0 0 0 53.6-23.4 165 165 0 0 0 32.9-34.3 133 133 0 0 0 21.3-93.3c-1.6-10.4-5.1-23.6-6.3-23.6-.4 0-7.2 6.5-15.2 14.5l-14.4 14.4-.2 12.3a79 79 0 0 1-7.8 35.5 88 88 0 0 1-56.3 48 63 63 0 0 1-23.3 2.6c-12.8 0-15.5-.3-23.5-2.6-4.9-1.5-12.6-4.5-17-6.7-8.1-4-21.5-13.3-21.5-14.9a32 32 0 0 1 9.8-1.4c5.3-.3 12.3-1.2 15.5-2.1 7.5-2.1 19.5-7.6 26.3-12.1 3-2 38.3-36.6 78.6-77S285.9 76 286.5 76s7.3 6.3 15 14c13 13 16.4 15.5 18 13 .3-.5 2.6-14.3 5-30.7l6.9-46.8c4.1-27.2 4.3-26.8-10.4-24.3M46.8 230.9c.9 1 4.4 5.3 7.7 9.6a118 118 0 0 0 43.6 34.6c8.1 3.5 23 7.9 26.7 7.9 3.1 0 7.2 4.3 7.2 7.5 0 1.4-1 3.5-2.1 4.6-1.9 1.9-2.9 2.1-7.8 1.5a113 113 0 0 1-68.4-34.4c-16.3-16.1-22.3-27.6-16.5-31.6 3-2.1 7.4-2 9.6.3"/><path fill="#fff" d="M115 111.3a55 55 0 0 0-25.7 15.3 57 57 0 0 0-15.8 29.1c-2.3 11.1.9 18.4 9 19.9 8.4 1.5 9.7.5 42.2-31.9a339 339 0 0 0 29.4-31c-1.9-1.9-12.9-3.7-22.1-3.6-6.8 0-11.6.6-17 2.2"/></svg>